<?xml version="1.0" encoding="UTF-8"?>
<svg width="28px" height="28px" viewBox="0 0 28 28" version="1.1" xmlns="http://www.w3.org/2000/svg" xmlns:xlink="http://www.w3.org/1999/xlink">
    <!-- Generator: Sketch 52.6 (67491) - http://www.bohemiancoding.com/sketch -->
    <title>设备@2x</title>
    <desc>Created with Sketch.</desc>
    <g id="Page-1" stroke="none" stroke-width="1" fill="none" fill-rule="evenodd">
        <g id="iPhone-8-Copy" transform="translate(-30.000000, -37.000000)">
            <g id="设备" transform="translate(30.000000, 37.000000)">
                <path d="M2,3 L25,3 L25,13 L2,13 L2,3 Z M4,5 L4,11 L23,11 L23,5 L4,5 Z M2,14 L25,14 L25,25 L2,25 L2,14 Z M4,16 L4,23 L23,23 L23,16 L4,16 Z" id="形状" fill="#3079FF"></path>
                <path d="M5,8 L14,8 L14,10 L5,10 L5,8 Z M5,20 L14,20 L14,22 L5,22 L5,20 Z" id="合并形状" fill="#FF6C6C"></path>
            </g>
        </g>
    </g>
</svg>