<?xml version="1.0" encoding="UTF-8"?>
<svg width="24px" height="24px" viewBox="0 0 24 24" version="1.1" xmlns="http://www.w3.org/2000/svg" xmlns:xlink="http://www.w3.org/1999/xlink">
    <!-- Generator: Sketch 52.6 (67491) - http://www.bohemiancoding.com/sketch -->
    <title>报警通知@2x</title>
    <desc>Created with Sketch.</desc>
    <g id="Page-1" stroke="none" stroke-width="1" fill="none" fill-rule="evenodd">
        <g id="所有图标" transform="translate(-49.000000, -551.000000)" fill="#FF6981" fill-rule="nonzero">
            <g id="4" transform="translate(49.000000, 551.000000)">
                <path d="M21.1070694,19.3172949 L21.1070694,13.3328004 C21.1070694,9.20814888 18.3625142,5.72760469 14.6014083,4.60710839 L14.6014083,4.22511937 C14.6014083,2.78794179 13.4363981,1.62288368 11.9991726,1.62288368 C10.5620669,1.62288368 9.39693687,2.78794177 9.39693687,4.22511937 L9.39693687,4.60710839 C5.63590284,5.72760469 2.89134766,9.20814888 2.89134766,13.3328004 L2.89134766,19.3172949 L1.59022983,19.3172949 L1.59022983,19.8384375 L9.39693689,19.8384375 C9.39693689,21.2755911 10.5620669,22.4406732 11.9991726,22.4406732 C13.4363981,22.4406732 14.6014083,21.2755911 14.6014083,19.8384375 L22.4081873,19.8384375 L22.4081873,19.3172949 L21.1070694,19.3172949 Z M21.1070694,19.3172949 L21.1070694,13.3328004 C21.1070694,9.20814888 18.3625142,5.72760469 14.6014083,4.60710839 L14.6014083,4.22511937 C14.6014083,2.78794179 13.4363981,1.62288368 11.9991726,1.62288368 C10.5620669,1.62288368 9.39693687,2.78794177 9.39693687,4.22511937 L9.39693687,4.60710839 C5.63590284,5.72760469 2.89134766,9.20814888 2.89134766,13.3328004 L2.89134766,19.3172949 L1.59022983,19.3172949 L1.59022983,19.8384375 L9.39693689,19.8384375 C9.39693689,21.2755911 10.5620669,22.4406732 11.9991726,22.4406732 C13.4363981,22.4406732 14.6014083,21.2755911 14.6014083,19.8384375 L22.4081873,19.8384375 L22.4081873,19.3172949 L21.1070694,19.3172949 Z" id="形状"></path>
            </g>
        </g>
    </g>
</svg>