<?xml version="1.0" encoding="UTF-8"?>
<svg width="18px" height="20px" viewBox="0 0 18 20" version="1.1" xmlns="http://www.w3.org/2000/svg" xmlns:xlink="http://www.w3.org/1999/xlink">
    <!-- Generator: Sketch 52.6 (67491) - http://www.bohemiancoding.com/sketch -->
    <title>删除@2x</title>
    <desc>Created with Sketch.</desc>
    <g id="Page-1" stroke="none" stroke-width="1" fill="none" fill-rule="evenodd">
        <g id="iPhone-8" transform="translate(-243.000000, -230.000000)">
            <g id="删除" transform="translate(240.000000, 228.000000)">
                <rect id="矩形" fill="#000000" opacity="0" x="0" y="0" width="24" height="24"></rect>
                <path d="M9.94633594,18.6218672 C10.3218047,18.6218672 10.629,18.3146719 10.629,17.9392031 L10.629,8.26807031 C10.629,7.89260156 10.3218047,7.58540625 9.94633594,7.58540625 C9.57086719,7.58540625 9.26367188,7.89260156 9.26367188,8.26807031 L9.26367188,17.9392031 C9.26367188,18.3146719 9.57086719,18.6218672 9.94633594,18.6218672 Z M14.3836406,18.6218672 C14.7591094,18.6218672 15.0663047,18.3146719 15.0663047,17.9392031 L15.0663047,8.26807031 C15.0663047,7.89260156 14.7591094,7.58540625 14.3836406,7.58540625 C14.0081719,7.58540625 13.7009766,7.89260156 13.7009766,8.26807031 L13.7009766,17.9392031 C13.7009766,18.3146719 14.0081719,18.6218672 14.3836406,18.6218672 Z" id="形状" fill="#8D8D8D" fill-rule="nonzero"></path>
                <path d="M20.2773281,4.84052344 L13.3255078,4.84052344 L13.3255078,3.73973438 C13.3255078,3.27039844 12.9415078,2.88639844 12.4721719,2.88639844 L11.5761797,2.88639844 C11.1068438,2.88639844 10.7228438,3.27039844 10.7228438,3.73973438 L10.7228438,4.84052344 L3.73689844,4.84052344 C3.36142969,4.84052344 3.05423438,5.14771875 3.05423438,5.5231875 C3.05423438,5.89865625 3.36142969,6.20585156 3.73689844,6.20585156 L4.73528906,6.20585156 L4.73528906,19.247625 C4.73528906,20.2602422 5.58576563,21.0822891 6.63253125,21.0822891 L17.4044531,21.0822891 C18.4511953,21.0822891 19.3016953,20.2602422 19.3016953,19.247625 L19.3016953,6.20585156 L20.2773516,6.20585156 C20.6528203,6.20585156 20.9600156,5.89865625 20.9600156,5.5231875 C20.9600156,5.14771875 20.6528203,4.84052344 20.2773516,4.84052344 L20.2773281,4.84052344 Z M17.9392031,19.2476484 C17.9392031,19.5007969 17.6945859,19.7169844 17.4072891,19.7169844 L6.63536719,19.7169844 C6.34523437,19.7169844 6.10345312,19.5008203 6.10345312,19.2476484 L6.10345312,6.205875 L17.9420391,6.205875 L17.9420391,19.2476484 L17.9392031,19.2476484 Z" id="形状" fill="#8D8D8D" fill-rule="nonzero"></path>
            </g>
        </g>
    </g>
</svg>