<?xml version="1.0" encoding="UTF-8"?>
<svg width="28px" height="28px" viewBox="0 0 28 28" version="1.1" xmlns="http://www.w3.org/2000/svg" xmlns:xlink="http://www.w3.org/1999/xlink">
    <!-- Generator: Sketch 52.6 (67491) - http://www.bohemiancoding.com/sketch -->
    <title>智能锁@2x</title>
    <desc>Created with Sketch.</desc>
    <g id="Page-1" stroke="none" stroke-width="1" fill="none" fill-rule="evenodd">
        <g id="iPhone-8-Copy" transform="translate(-106.000000, -37.000000)">
            <g id="智能锁" transform="translate(106.000000, 37.000000)">
                <path d="M9,12 L11,12 L11,10 L9,10 L9,3 L25,3 L25,25 L9,25 L9,12 Z M11,5 L11,23 L23,23 L23,5 L11,5 Z" id="合并形状" fill="#3079FF"></path>
                <path d="M2,8 L17,8 L17,14 L2,14 L2,8 Z M4,10 L4,12 L15,12 L15,10 L4,10 Z" id="合并形状" fill="#3079FF"></path>
                <polygon id="合并形状" fill="#FF6C6C" points="13.5 17.5 18.5 17.5 18.5 19.5 13.5 19.5"></polygon>
            </g>
        </g>
    </g>
</svg>