<?xml version="1.0" encoding="UTF-8"?>
<svg width="18px" height="18px" viewBox="0 0 18 18" version="1.1" xmlns="http://www.w3.org/2000/svg" xmlns:xlink="http://www.w3.org/1999/xlink">
    <!-- Generator: Sketch 52.6 (67491) - http://www.bohemiancoding.com/sketch -->
    <title>电量不足2@2x</title>
    <desc>Created with Sketch.</desc>
    <g id="Page-1" stroke="none" stroke-width="1" fill="none" fill-rule="evenodd">
        <g id="所有图标" transform="translate(-148.000000, -11.000000)" fill="#FFA517">
            <g id="分组-4" transform="translate(130.000000, 11.000000)">
                <g id="分组-3-copy" transform="translate(18.000000, 0.000000)">
                    <path d="M3,7 L4,7 L4,12 L3,12 L3,7 Z M5,7 L6,7 L6,12 L5,12 L5,7 Z M7,7 L8,7 L8,12 L7,12 L7,7 Z M9,7 L10,7 L10,12 L9,12 L9,7 Z M15,7 L17,7 L17,12 L15,12 L15,14 L1,14 L1,5 L15,5 L15,7 Z M15,8 L15,11 L16,11 L16,8 L15,8 Z M14,6 L2,6 L2,13 L14,13 L14,6 Z" id="形状"></path>
                </g>
            </g>
        </g>
    </g>
</svg>