<?xml version="1.0" encoding="UTF-8"?>
<svg width="38px" height="38px" viewBox="0 0 38 38" version="1.1" xmlns="http://www.w3.org/2000/svg" xmlns:xlink="http://www.w3.org/1999/xlink">
    <!-- Generator: Sketch 52.6 (67491) - http://www.bohemiancoding.com/sketch -->
    <title>防撬@2x</title>
    <desc>Created with Sketch.</desc>
    <defs>
        <linearGradient x1="50%" y1="0%" x2="50%" y2="100%" id="linearGradient-1">
            <stop stop-color="#FF5D29" offset="0%"></stop>
            <stop stop-color="#FFA48F" offset="100%"></stop>
        </linearGradient>
        <linearGradient x1="50%" y1="0%" x2="50%" y2="100%" id="linearGradient-2">
            <stop stop-color="#FFFFFF" offset="0%"></stop>
            <stop stop-color="#FFF2F2" offset="100%"></stop>
        </linearGradient>
    </defs>
    <g id="Page-1" stroke="none" stroke-width="1" fill="none" fill-rule="evenodd">
        <g id="iPhone-8" transform="translate(-28.000000, -214.000000)">
            <g id="防撬" transform="translate(28.000000, 214.000000)">
                <circle id="椭圆形" fill="url(#linearGradient-1)" cx="19" cy="19" r="19"></circle>
                <g id="工具箱" transform="translate(8.000000, 8.000000)">
                    <rect id="矩形" fill="#000000" opacity="0" x="0" y="0" width="22" height="22"></rect>
                    <path d="M20.246875,6.210875 C20.246875,6.210875 17.510625,8.969125 17.2315,9.251 C16.952375,9.5315 16.00775,9.502625 16.00775,9.502625 C16.00775,9.502625 13.509375,9.219375 13.14775,8.8605 C12.79025,8.50025 12.54275,5.885 12.54275,5.885 C12.54275,5.885 12.472625,5.157625 12.832875,4.796 C13.19175,4.43575 15.863375,1.76275 15.863375,1.76275 C15.863375,1.76275 16.20575,1.37775 15.709375,1.375 C14.1075,1.3695 10.852875,1.406625 9.277125,2.9865 L8.949875,3.309625 C7.129375,5.143875 6.9685,7.88975 8.358625,9.906875 L2.248125,15.3175 C1.513875,16.05175 0.7205,18.2215 2.248125,19.751875 C3.77575,21.28225 5.938625,20.486125 6.670125,19.7505 C6.670125,19.7505 11.037125,14.832125 12.09725,13.666125 C14.1075,15.1085 16.874,14.9655 18.7165,13.116125 L19.041,12.791625 C20.568625,11.2585 20.618125,8.03 20.625,6.3965 C20.629125,5.875375 20.246875,6.210875 20.246875,6.210875 Z M4.926625,18.88425 C3.92425,18.88425 3.114375,18.07575 3.114375,17.073375 C3.114375,16.07375 3.925625,15.2625 4.926625,15.2625 C5.927625,15.2625 6.736125,16.075125 6.736125,17.073375 C6.736125,18.07575 5.927625,18.88425 4.926625,18.88425 Z" id="形状" fill="url(#linearGradient-2)" fill-rule="nonzero"></path>
                </g>
            </g>
        </g>
    </g>
</svg>