<?xml version="1.0" encoding="UTF-8"?>
<svg width="28px" height="28px" viewBox="0 0 28 28" version="1.1" xmlns="http://www.w3.org/2000/svg" xmlns:xlink="http://www.w3.org/1999/xlink">
    <!-- Generator: Sketch 52.6 (67491) - http://www.bohemiancoding.com/sketch -->
    <title>指纹@2x</title>
    <desc>Created with Sketch.</desc>
    <g id="Page-1" stroke="none" stroke-width="1" fill="none" fill-rule="evenodd">
        <g id="iPhone-8-Copy" transform="translate(-68.000000, -37.000000)">
            <g id="指纹" transform="translate(68.000000, 37.000000)">
                <path d="M2,11 L25,11 L25,25 L2,25 L2,11 Z M4,13 L4,23 L23,23 L23,13 L4,13 Z M9,3 L16,3 L16,5 L9,5 L9,3 Z M18,3 L18,8 L16,8 L16,3 L18,3 Z M9,3 L9,11 L7,11 L7,3 L9,3 Z" id="形状" fill="#3079FF"></path>
                <path d="M12,18 L8.5,18 L8.5,16 L17.5,16 L17.5,18 L14,18 L14,22 L12,22 L12,18 Z" id="合并形状" fill="#FF6C6C"></path>
            </g>
        </g>
    </g>
</svg>