<?xml version="1.0" encoding="UTF-8"?>
<svg width="38px" height="38px" viewBox="0 0 38 38" version="1.1" xmlns="http://www.w3.org/2000/svg" xmlns:xlink="http://www.w3.org/1999/xlink">
    <!-- Generator: Sketch 52.6 (67491) - http://www.bohemiancoding.com/sketch -->
    <title>指纹开锁@2x</title>
    <desc>Created with Sketch.</desc>
    <defs>
        <linearGradient x1="50%" y1="0%" x2="50%" y2="100%" id="linearGradient-1">
            <stop stop-color="#1592FC" offset="0%"></stop>
            <stop stop-color="#46BDFF" offset="100%"></stop>
        </linearGradient>
    </defs>
    <g id="Page-1" stroke="none" stroke-width="1" fill="none" fill-rule="evenodd">
        <g id="iPhone-8" transform="translate(-76.000000, -166.000000)">
            <g id="指纹开锁" transform="translate(76.000000, 166.000000)">
                <circle id="椭圆形" fill="url(#linearGradient-1)" cx="19" cy="19" r="19"></circle>
                <path d="M16.2973309,12.2855254 C17.2804244,11.8660939 18.3235542,11.6526107 19.3992036,11.6526107 C22.5210884,11.6526107 25.3678071,13.5036352 26.6535834,16.3668209 C26.7911664,16.6707204 27.0913477,16.8540648 27.4040364,16.8540648 C27.5191059,16.8540648 27.6316739,16.8289491 27.7417403,16.7812293 C28.156991,16.5928619 28.3396013,16.1031064 28.1544895,15.6861864 C26.6060547,12.2327826 23.1664781,10 19.3992036,10 C18.1009198,10 16.8401586,10.2586913 15.6519412,10.7635162 C15.234189,10.9418374 15.0390712,11.4265697 15.2166784,11.8485129 C15.3942856,12.270456 15.8795786,12.4663582 16.2973309,12.2855254 Z M29,19.5565102 L29,19.4033047 C29,19.3681428 28.9974985,19.3304693 28.9924955,19.2953073 C28.9849909,19.129544 28.9774864,18.9637806 28.9624773,18.8005288 C28.9224532,18.3459352 28.524713,18.0093853 28.0719397,18.0470588 C27.6191663,18.0872439 27.283964,18.4865829 27.3214866,18.9411765 C27.3364957,19.1370787 27.3490032,19.3329808 27.3515047,19.5313946 C27.3264896,22.0856576 26.5660305,24.5520159 25.1501757,26.6667548 C24.8950216,27.0460013 24.9975836,27.5583609 25.3753116,27.8145406 C25.5153962,27.9074686 25.6779944,27.9551884 25.833088,27.9551884 C26.0982481,27.9551884 26.3584052,27.8270985 26.5185018,27.5910112 C28.0794442,25.257766 28.9324592,22.5427627 28.994997,19.7323199 C28.9974985,19.7021811 29,19.6745539 29,19.6419035 L29,19.5565102 Z M14.3986846,19.4259088 C14.4437117,17.5949769 15.4268053,15.8946464 16.9652341,14.9929941 C17.3579712,14.7619299 17.4905513,14.2545935 17.2604123,13.8627892 C17.0302734,13.4684732 16.5249683,13.3353602 16.1347327,13.5664243 C15.1491376,14.1440846 14.3161347,14.9779247 13.7232768,15.9775281 C13.1504309,16.9444812 12.8202316,18.0445473 12.7576938,19.1747521 C12.7376817,19.2475876 12.7276757,19.3254461 12.7276757,19.4033047 C12.7276757,21.0358229 12.0297543,22.5955056 10.8065158,23.6855254 C10.4663104,23.989425 10.4362923,24.5118308 10.738975,24.8534038 C10.9015732,25.0367482 11.1267091,25.1321877 11.3543466,25.1321877 C11.5494644,25.1321877 11.7445822,25.0618638 11.9021773,24.9237277 C13.420594,23.5674818 14.3136332,21.6411104 14.3711679,19.6117647 C14.386177,19.5539987 14.3986846,19.4912095 14.3986846,19.4259088 Z M24.5848344,23.5147389 C24.1670822,23.3364177 23.6817892,23.5298083 23.5041819,23.9492399 C22.9263331,25.3105089 22.1008347,26.5336418 21.0552034,27.5884997 C20.7325086,27.9124917 20.7350101,28.4348976 21.0577049,28.7588896 C21.2178016,28.9196299 21.4279284,29 21.6380553,29 C21.8506837,29 22.0608105,28.9196299 22.2209072,28.7563781 C23.4166291,27.5533377 24.3546954,26.1543952 25.0175957,24.5997356 C25.1952029,24.180304 25.0025866,23.6955717 24.5848344,23.5147389 Z M24.0470097,22.3669531 C23.9319402,22.8089888 24.1920973,23.2610707 24.6323631,23.3791143 C24.7049069,23.3966953 24.7724476,23.4067416 24.8424899,23.4067416 C25.2052089,23.4067416 25.5404113,23.1631196 25.6379702,22.7914078 C25.9031303,21.7817581 26.0482179,20.7369465 26.0707315,19.6871117 C26.078236,19.6469266 26.0807375,19.6067416 26.0807375,19.5640449 C26.0807375,15.7665565 23.0914327,12.6748182 19.4167142,12.6748182 C18.9614393,12.6748182 18.5937173,13.0440185 18.5937173,13.5011236 C18.5937173,13.9582287 18.9614393,14.3274289 19.4167142,14.3274289 C22.1183452,14.3274289 24.3271788,16.5652346 24.4297407,19.3555849 C24.4297407,19.3706543 24.4272392,19.3857237 24.4272392,19.4033047 C24.4272392,20.4079313 24.2996622,21.4050231 24.0470097,22.3669531 Z M23.1364599,19.9382683 C23.1714811,19.8453404 23.1914932,19.7448777 23.1914932,19.6419035 C23.1914932,17.524653 21.5079767,15.8067416 19.4367262,15.8067416 C18.4486297,15.8067416 17.5130648,16.1960344 16.8076389,16.9042961 C16.2172825,17.4945142 15.842056,18.2504957 15.7219835,19.0717779 C15.6769563,19.1747521 15.6519412,19.2877726 15.6519412,19.4058163 C15.6519412,20.3677462 15.4643279,21.3020489 15.0991074,22.1810972 C14.9215002,22.6030403 15.121621,23.0877726 15.5393732,23.2635823 C15.6444367,23.3087905 15.7520016,23.328883 15.8595666,23.328883 C16.1822614,23.328883 16.4874456,23.138004 16.6175242,22.8215466 C17.0177658,21.8646398 17.2429017,20.8549901 17.2929319,19.8177132 C17.3154455,19.7448777 17.3304546,19.6670192 17.3304546,19.586649 C17.3604727,18.4137475 18.3035421,17.4618638 19.4392278,17.4618638 C20.479856,17.4618638 21.3428771,18.2454726 21.5154813,19.2701917 C21.5079767,19.3153999 21.5054752,19.3606081 21.5054752,19.4058163 C21.5054752,22.5151355 20.107131,25.4109716 17.67066,27.3499009 C17.312944,27.6337079 17.2554093,28.1536021 17.5355784,28.5102445 C17.6981766,28.716193 17.9408231,28.8241904 18.1809681,28.8241904 C18.3585753,28.8241904 18.5411856,28.7664243 18.6912762,28.6458691 C20.0495963,27.5658956 21.1727744,26.1719762 21.9382365,24.6198282 C22.6636745,23.1480502 23.0664176,21.5732981 23.1364599,19.9382683 Z M20.224702,19.4033047 C20.224702,18.9461996 19.85698,18.5769993 19.4017051,18.5769993 C18.9464302,18.5769993 18.5787082,18.9461996 18.5787082,19.4033047 C18.5787082,22.2062128 17.2128836,24.8534038 14.9240017,26.4808989 C14.5537782,26.7446134 14.4662253,27.261996 14.7263824,27.6337079 C14.8864791,27.8597488 15.1416331,27.9828156 15.3992887,27.9828156 C15.5643883,27.9828156 15.729488,27.9325843 15.8745756,27.82961 C17.19037,26.8953073 18.2810285,25.6470588 19.0339831,24.2204891 C19.8119528,22.7461996 20.224702,21.0810311 20.224702,19.4033047 Z M15.6669503,24.5319233 C15.9296088,24.1602115 15.8445575,23.6453404 15.474334,23.3791143 C15.1041105,23.1153999 14.5913008,23.2007931 14.3261408,23.572505 C13.8708659,24.2129544 13.3180321,24.7730337 12.68515,25.2326504 C12.317428,25.501388 12.2373797,26.0162591 12.5025398,26.3879709 C12.6626364,26.6089888 12.915289,26.729544 13.170443,26.729544 C13.3380442,26.729544 13.5081469,26.6768011 13.6532345,26.5738268 C14.4312042,26.0037013 15.1091135,25.3180436 15.6669503,24.5319233 Z M11.449404,19.3455387 C11.5119417,17.6376735 12.1047996,16.0277594 13.1629385,14.6840714 C13.4456091,14.3249174 13.3855729,13.8075347 13.0278569,13.5237277 C12.670141,13.2399207 12.1548298,13.3001983 11.8721592,13.6593523 C10.5688723,15.3069399 9.85093889,17.2910773 9.79840717,19.39577 C9.79840717,19.4284204 9.79840717,19.4610707 9.80090868,19.4912095 C9.78589962,20.2773298 9.55576068,21.0433576 9.13050393,21.7038995 C8.88535592,22.0881692 8.99542238,22.5980172 9.37815345,22.8466623 C9.51573651,22.9370787 9.67083015,22.9797753 9.82342227,22.9797753 C10.0935854,22.9797753 10.3587455,22.8441507 10.5188421,22.6005288 C11.1267091,21.6486451 11.4519055,20.5435558 11.4519055,19.4083278 C11.4519055,19.3857237 11.4519055,19.3656312 11.449404,19.3455387 Z" id="形状" fill="#F2FAFE" fill-rule="nonzero"></path>
            </g>
        </g>
    </g>
</svg>