<?xml version="1.0" encoding="UTF-8"?>
<svg width="38px" height="38px" viewBox="0 0 38 38" version="1.1" xmlns="http://www.w3.org/2000/svg" xmlns:xlink="http://www.w3.org/1999/xlink">
    <!-- Generator: Sketch 52.6 (67491) - http://www.bohemiancoding.com/sketch -->
    <title>禁试@2x</title>
    <desc>Created with Sketch.</desc>
    <defs>
        <linearGradient x1="50%" y1="0%" x2="50%" y2="100%" id="linearGradient-1">
            <stop stop-color="#5863FF" offset="0%"></stop>
            <stop stop-color="#808BFF" offset="100%"></stop>
        </linearGradient>
        <linearGradient x1="50%" y1="0%" x2="50%" y2="100%" id="linearGradient-2">
            <stop stop-color="#E2E3FF" offset="0%"></stop>
            <stop stop-color="#FFFFFF" offset="100%"></stop>
        </linearGradient>
    </defs>
    <g id="Page-1" stroke="none" stroke-width="1" fill="none" fill-rule="evenodd">
        <g id="iPhone-8" transform="translate(-76.000000, -214.000000)">
            <g id="禁试" transform="translate(76.000000, 214.000000)">
                <circle id="椭圆形" fill="url(#linearGradient-1)" cx="19" cy="19" r="19"></circle>
                <g id="钥匙" transform="translate(10.000000, 10.000000)" fill="#000000" opacity="0">
                    <rect id="矩形" x="0" y="0" width="19" height="19"></rect>
                </g>
                <g id="点击手势" transform="translate(9.000000, 9.000000)">
                    <rect id="矩形" fill="#000000" opacity="0" x="0" y="0" width="20" height="20"></rect>
                    <path d="M18.399958,6.29740186 C18.3991941,6.00165912 18.2671273,5.72152946 18.0394669,5.5327568 C17.8118066,5.34398414 17.512068,5.26606703 17.2212972,5.3200734 C16.738633,5.40840629 16.4113013,5.86707066 16.4113013,6.35773488 L16.4113013,9.42071957 C16.4113013,9.78688253 16.1144675,10.0837163 15.7483046,10.0837163 C15.3821416,10.0837163 15.0853079,9.78688253 15.0853079,9.42071957 L15.0853079,5.03207484 C15.0853079,4.54141063 14.7579762,4.08241293 14.275312,3.99441336 C13.9845412,3.940407 13.6848026,4.01832411 13.4571423,4.20709677 C13.2294819,4.39586942 13.0974151,4.67599909 13.0966512,4.97174182 L13.0966512,8.75772287 C13.0966512,9.12388583 12.7998175,9.42071956 12.4336545,9.42071956 C12.0674915,9.42071956 11.7706578,9.12388583 11.7706578,8.75772287 L11.7706578,3.37474979 C11.7706578,2.88408557 11.4433261,2.42508787 10.9606619,2.33708832 C10.6698911,2.28308196 10.3701525,2.36099907 10.1424922,2.54977172 C9.91483184,2.73854437 9.78276502,3.01867403 9.78200109,3.31441676 L9.78200109,9.08905455 C9.78200109,9.45521751 9.48516737,9.75205124 9.1190044,9.75205124 C8.75284144,9.75205124 8.45600771,9.45521751 8.45600771,9.08905455 L8.45600771,1.05442807 C8.45600771,0.563763848 8.12867602,0.104766152 7.64601178,0.016766582 C7.35524098,-0.0372397827 7.05550242,0.0406773235 6.82784208,0.229449981 C6.60018174,0.418222639 6.46811491,0.698352308 6.467351,0.994095039 L6.467351,12.7513696 L3.91803041,10.202049 C3.45536605,9.73938463 2.71436977,9.61538525 2.17603912,9.9873834 C1.85103163,10.2107246 1.6419611,10.5668379 1.60532978,10.9594819 C1.56869845,11.3521259 1.70828788,11.740767 1.9863734,12.0203732 L8.17567578,18.2096756 C8.20300898,18.2373421 8.23000885,18.2646754 8.25800871,18.2920085 L8.30867512,18.342675 C8.32400838,18.3580082 8.34200828,18.3683415 8.3580082,18.3830081 C9.42533619,19.3830031 10.8559957,20 12.4339878,20 L14.2573121,20 C16.5449673,20 18.399958,18.1453426 18.399958,15.857354 L18.399958,6.29740186 Z" id="路径" fill="url(#linearGradient-2)"></path>
                </g>
            </g>
        </g>
    </g>
</svg>