<?xml version="1.0" encoding="UTF-8"?>
<svg width="38px" height="38px" viewBox="0 0 38 38" version="1.1" xmlns="http://www.w3.org/2000/svg" xmlns:xlink="http://www.w3.org/1999/xlink">
    <!-- Generator: Sketch 52.6 (67491) - http://www.bohemiancoding.com/sketch -->
    <title>钥匙开锁@2x</title>
    <desc>Created with Sketch.</desc>
    <defs>
        <linearGradient x1="50%" y1="0%" x2="50%" y2="100%" id="linearGradient-1">
            <stop stop-color="#FB9E03" offset="0%"></stop>
            <stop stop-color="#FFCF37" offset="100%"></stop>
        </linearGradient>
        <linearGradient x1="50%" y1="0%" x2="50%" y2="100%" id="linearGradient-2">
            <stop stop-color="#FFF0CB" offset="0%"></stop>
            <stop stop-color="#FFFFFF" offset="100%"></stop>
        </linearGradient>
    </defs>
    <g id="Page-1" stroke="none" stroke-width="1" fill="none" fill-rule="evenodd">
        <g id="iPhone-8" transform="translate(-124.000000, -166.000000)">
            <g id="钥匙开锁" transform="translate(124.000000, 166.000000)">
                <circle id="椭圆形" fill="url(#linearGradient-1)" cx="19" cy="19" r="19"></circle>
                <g id="钥匙" transform="translate(10.000000, 10.000000)">
                    <rect id="矩形" fill="#000000" opacity="0" x="0" y="0" width="19" height="19"></rect>
                    <path d="M13.0114375,0 C11.1011326,0.00273686748 9.30642246,0.91544113 8.17897455,2.45756096 C7.05152664,3.99968079 6.72624819,5.98669046 7.303125,7.8078125 L0.121125,14.9898125 C0.0435450386,15.0677149 -8.26650677e-06,15.1731822 0,15.283125 L0,18.58675 C0,18.81475 0.18525,19 0.41325,19 L3.3048125,19 C3.4140625,19 3.5185625,18.9560625 3.5969375,18.878875 L4.4281875,18.047625 C4.50558729,17.9700875 4.54913646,17.8650571 4.5493125,17.7555 L4.5493125,16.4409375 L5.863875,16.4409375 C5.97347571,16.4409375 6.07858747,16.3973988 6.15608688,16.3198994 C6.23358629,16.2424 6.277125,16.1372882 6.277125,16.0276875 L6.277125,14.869875 L7.4349375,14.869875 C7.5441875,14.869875 7.6486875,14.8259375 7.7270625,14.74875 L10.8858125,11.59 C12.7265308,12.2846404 14.790897,12.0322085 16.4100001,10.914499 C18.0291031,9.79678943 18.9969754,7.95598727 19,5.9885625 C18.9954213,2.68306918 16.3169308,0.00457870516 13.0114375,0 Z M8.8314375,9.2209375 L1.797875,16.2545 C1.74702457,16.3125715 1.66804595,16.3374578 1.59308987,16.3190281 C1.51813378,16.3005984 1.45969998,16.2419261 1.44157576,16.1668956 C1.42345155,16.0918651 1.44865933,16.0129885 1.5069375,15.962375 L8.5405,8.93 C8.62171428,8.85265306 8.74980175,8.85421487 8.82910594,8.93351906 C8.90841013,9.01282325 8.90997194,9.14091072 8.832625,9.222125 L8.8314375,9.2209375 Z M15.98375,8.5654375 L15.691625,8.8575625 L10.14125,3.308375 L10.433375,3.01625 C11.1676687,2.27850812 12.1664899,1.86504061 13.207375,1.8679375 C14.2559375,1.8679375 15.2415625,2.27525 15.9825625,3.01625 C17.5125129,4.54961554 17.5125129,7.03207196 15.9825625,8.5654375 L15.98375,8.5654375 Z" id="形状" fill="url(#linearGradient-2)" fill-rule="nonzero"></path>
                </g>
            </g>
        </g>
    </g>
</svg>