<?xml version="1.0" encoding="UTF-8"?>
<svg width="38px" height="38px" viewBox="0 0 38 38" version="1.1" xmlns="http://www.w3.org/2000/svg" xmlns:xlink="http://www.w3.org/1999/xlink">
    <!-- Generator: Sketch 52.6 (67491) - http://www.bohemiancoding.com/sketch -->
    <title>密码开锁@2x</title>
    <desc>Created with Sketch.</desc>
    <defs>
        <linearGradient x1="50%" y1="0%" x2="50%" y2="100%" id="linearGradient-1">
            <stop stop-color="#FF5D29" offset="0%"></stop>
            <stop stop-color="#FFA48F" offset="100%"></stop>
        </linearGradient>
        <linearGradient x1="50%" y1="0%" x2="50%" y2="100%" id="linearGradient-2">
            <stop stop-color="#FFF7F3" offset="0%"></stop>
            <stop stop-color="#FFEBE4" offset="100%"></stop>
        </linearGradient>
    </defs>
    <g id="Page-1" stroke="none" stroke-width="1" fill="none" fill-rule="evenodd">
        <g id="iPhone-8" transform="translate(-28.000000, -166.000000)">
            <g id="密码开锁" transform="translate(28.000000, 166.000000)">
                <circle id="椭圆形" fill="url(#linearGradient-1)" cx="19" cy="19" r="19"></circle>
                <g id="密码" transform="translate(8.000000, 8.000000)">
                    <rect id="矩形" fill="#000000" opacity="0" x="0" y="0" width="22" height="22"></rect>
                    <path d="M21.253418,9.78355469 C21.340881,10.331941 21.3847033,10.8864015 21.3844727,11.4417188 C21.3873638,12.8317694 21.109685,14.2081061 20.5680664,15.4883008 C18.6409786,20.0420205 13.7736812,22.6088679 8.92741112,21.6271872 C4.08114107,20.6455065 0.596447306,16.3868447 0.593398437,11.4421484 C0.593463353,10.8868801 0.637573041,10.3324917 0.7253125,9.78419922 L0.841328125,9.06082031 L18.0503125,9.06082031 C18.060625,5.10898438 14.8484961,1.890625 10.8985937,1.890625 C7.55541016,1.890625 4.61591797,4.25712891 3.90929687,7.51845703 C3.86006893,7.74542244 3.72107531,7.94280057 3.52397487,8.06563421 C3.32687443,8.18846786 3.08844993,8.22629793 2.86300781,8.17050781 C2.413125,8.05964844 2.13490234,7.58398438 2.234375,7.13152344 C3.21154262,2.71240895 7.35842372,-0.262793056 11.8576797,0.227232023 C16.3569358,0.717257102 19.7661143,4.51540821 19.7690625,9.04126953 L19.7690625,9.06017578 L21.1374023,9.06017578 L21.253418,9.78355469 Z M8.37783203,14.173457 C8.34325246,15.3222788 9.05839485,16.360588 10.1440625,16.737832 L10.1440625,18.294375 C10.1440625,18.7391016 10.5062891,19.1410742 10.9501562,19.1677148 C11.1868983,19.1824211 11.419191,19.0986233 11.5920227,18.9361664 C11.7648544,18.7737095 11.8628537,18.5470421 11.8628125,18.3098438 L11.8628125,16.737832 C13.0830701,16.3155904 13.8155146,15.0691161 13.5905171,13.7976238 C13.3655197,12.5261314 12.2498062,11.6066987 10.95875,11.6288477 C9.56291016,11.6522656 8.42058594,12.777832 8.37783203,14.173457 Z M11,15.1636719 C10.4984456,15.1636719 10.0918555,14.7570817 10.0918555,14.2555273 C10.0918555,13.753973 10.4984456,13.3473828 11,13.3473828 C11.5015544,13.3473828 11.9081445,13.753973 11.9081445,14.2555273 C11.9075526,14.7568363 11.501309,15.1630799 11,15.1636719 Z" id="合并形状" fill="url(#linearGradient-2)" fill-rule="nonzero"></path>
                </g>
            </g>
        </g>
    </g>
</svg>