<?xml version="1.0" encoding="UTF-8"?>
<svg width="24px" height="24px" viewBox="0 0 24 24" version="1.1" xmlns="http://www.w3.org/2000/svg" xmlns:xlink="http://www.w3.org/1999/xlink">
    <!-- Generator: Sketch 52.6 (67491) - http://www.bohemiancoding.com/sketch -->
    <title>开锁日志@2x</title>
    <desc>Created with Sketch.</desc>
    <g id="Page-1" stroke="none" stroke-width="1" fill="none" fill-rule="evenodd">
        <g id="所有图标" transform="translate(-275.000000, -479.000000)" fill="#FF8865" fill-rule="nonzero">
            <g id="3" transform="translate(275.000000, 479.000000)">
                <path d="M13.3382813,8.315625 C13.3382813,8.59453125 13.434375,8.83359375 13.63125,9.02578125 C13.828125,9.22265625 14.0648438,9.31875 14.3414063,9.31875 L20.034375,9.31875 L20.034375,20 C20.034375,20.2789062 19.9382813,20.5179687 19.7414063,20.7101562 C19.546875,20.909375 19.3101562,21.0054687 19.03125,21.0054687 L4.96875,21.0054687 C4.68984375,21.0054687 4.45078125,20.909375 4.25859375,20.7125 C4.06171875,20.515625 3.965625,20.2789062 3.965625,20.0023437 L3.965625,3 C3.965625,2.72109375 4.06171875,2.48203125 4.25859375,2.28984375 C4.45546875,2.09296875 4.6921875,1.996875 4.96875,1.996875 L13.3382813,1.91796875 L13.3382813,8.315625 Z M14.6765625,7.9828125 L14.6765625,3.03984375 C14.83125,3.1359375 14.9554687,3.23671875 15.0539063,3.3328125 L19.3242187,7.603125 C19.4203125,7.69921875 19.5210937,7.82578125 19.6171875,7.98046875 L14.6765625,7.9828125 Z" id="形状"></path>
            </g>
        </g>
    </g>
</svg>