<?xml version="1.0" encoding="UTF-8"?>
<svg width="86px" height="98px" viewBox="0 0 86 98" version="1.1" xmlns="http://www.w3.org/2000/svg" xmlns:xlink="http://www.w3.org/1999/xlink">
    <!-- Generator: Sketch 52.6 (67491) - http://www.bohemiancoding.com/sketch -->
    <title>logo@2x</title>
    <desc>Created with Sketch.</desc>
    <g id="Page-1" stroke="none" stroke-width="1" fill="none" fill-rule="evenodd">
        <g id="修改密码" transform="translate(-145.000000, -78.000000)">
            <g id="logo" transform="translate(145.000000, 78.000000)">
                <polygon id="Fill-1" fill="#F5D724" points="0 98 86 98 86 0 0 0"></polygon>
                <polygon id="Fill-2" fill="#00436E" points="24.4797427 52 19.0170108 65.3463384 13.5288222 52 7 52 15.7126302 72 22.2952209 72 31 52"></polygon>
                <g id="分组" transform="translate(9.000000, 52.000000)" fill="#00436E">
                    <path d="M54.3425636,14.387712 C53.7349347,14.387712 53.2381993,13.891392 53.2381993,13.285152 L53.2381993,6.672672 C53.2381993,6.066672 53.7349347,5.571072 54.3425636,5.571072 L67.5987835,5.571072 L67.5987835,0.089952 L52.1499519,0.089952 C49.719677,0.089952 47.7315326,2.073792 47.7315326,4.498512 L47.7315326,15.509472 C47.7315326,17.934192 49.719677,19.917792 52.1499519,19.917792 L69.8135258,19.917792 L69.8135258,14.387712 L54.3425636,14.387712 Z" id="Fill-3"></path>
                    <path d="M39.9813299,13.2852 C39.9813299,13.8912 39.4848351,14.38776 38.8772062,14.38776 L27.8532887,14.38776 C27.2456598,14.38776 26.7484433,13.8912 26.7484433,13.2852 L26.7484433,6.67272 C26.7484433,6.06672 27.2456598,5.57088 27.8532887,5.57088 L38.8772062,5.57088 C39.4848351,5.57088 39.9813299,6.06672 39.9813299,6.67272 L39.9813299,13.2852 Z M41.1046976,0.09 L25.6079966,0.09 C23.1777216,0.09 21.1895773,2.07384 21.1895773,4.49856 L21.1895773,15.50952 C21.1895773,17.93424 23.1777216,19.91784 25.6079966,19.91784 L41.1046976,19.91784 C43.5349725,19.91784 45.5235979,17.93424 45.5235979,15.50952 L45.5235979,4.49856 C45.5235979,2.07384 43.5349725,0.09 41.1046976,0.09 Z" id="Fill-5"></path>
                    <polygon id="Fill-7" points="64.2834536 25.408728 64.2834536 29.817048 64.9461684 29.817048 64.9461684 28.289928 65.6952405 27.586008 67.3170275 29.817048 68.1500515 29.817048 66.1361684 27.194328 68.1365808 25.408728 67.2814261 25.408728 64.9461684 27.483768 64.9461684 25.408728"></polygon>
                    <path d="M57.8261821,26.22036 C58.0369038,26.07324 58.2991031,25.9998 58.6127801,25.9998 C58.8870069,25.9998 59.1725395,26.08044 59.3524708,26.21364 C59.5239828,26.34012 59.6562852,26.5374 59.7505808,26.8062 L60.4171443,26.66628 C60.2999966,26.2722 60.0928832,25.96716 59.7958041,25.74972 C59.498244,25.53228 59.0683814,25.40868 58.631543,25.40868 C58.2471443,25.40868 57.8949794,25.49388 57.574567,25.66524 C57.2536735,25.83708 57.0068694,26.08812 56.8329519,26.41884 C56.6587938,26.74932 56.5731581,27.13692 56.5731581,27.58044 C56.5731581,27.98724 56.6503746,28.36884 56.8036048,28.7238 C56.9565945,29.07828 57.181268,29.34948 57.4759416,29.53716 C57.7706151,29.72364 58.1521271,29.817 58.6224021,29.817 C59.0775223,29.817 59.4479691,29.69244 59.7628488,29.44908 C60.0762852,29.20476 60.2951856,28.85148 60.415701,28.389 L59.7457698,28.24428 C59.6728832,28.56732 59.5386564,28.7958 59.3279347,28.96692 C59.1172131,29.13684 58.8747388,29.2254 58.5723677,29.2254 C58.3224364,29.2254 58.0915086,29.16324 57.8771787,29.03772 C57.6633299,28.91268 57.5064914,28.7226 57.4042577,28.46964 C57.3032268,28.21596 57.2529519,27.92028 57.2529519,27.57996 C57.2529519,27.31644 57.2957698,27.06108 57.381646,26.81388 C57.466079,26.565 57.6149794,26.36748 57.8261821,26.22036" id="Fill-9"></path>
                    <polygon id="Fill-11" points="41.1070309 25.408728 41.1070309 29.817048 44.9522199 29.817048 44.9522199 29.155848 41.7697457 29.155848 41.7697457 25.408728"></polygon>
                    <polygon id="Fill-13" points="32.858457 29.817072 32.858457 26.069952 34.4386289 26.069952 34.4386289 25.408752 30.6143677 25.408752 30.6143677 26.069952 32.1957423 26.069952 32.1957423 29.817072"></polygon>
                    <polygon id="Fill-15" points="11.2836632 29.817072 11.2836632 25.408752 10.384488 25.408752 9.39534708 28.730592 8.35496907 25.408752 7.45579381 25.408752 7.45579381 29.817072 8.07424742 29.817072 8.07424742 26.526912 9.12713402 29.817072 9.60679038 29.817072 10.6649691 26.510592 10.6649691 29.817072"></polygon>
                    <path d="M25.6135292,26.9952 C25.5406426,27.10824 25.434079,27.19104 25.2931168,27.24312 C25.1523952,27.29448 24.9563471,27.32064 24.7076186,27.32064 L23.5428763,27.32064 L23.5428763,25.95504 L24.8394399,25.95504 C25.1463814,25.95504 25.3691306,26.01744 25.5112955,26.1432 C25.6534605,26.2692 25.7232199,26.42928 25.7232199,26.62488 C25.7232199,26.7588 25.6864158,26.88144 25.6135292,26.9952 M26.3890619,26.62416 C26.3890619,26.38224 26.3284433,26.16144 26.2069656,25.96104 C26.0845258,25.76184 25.9216735,25.62312 25.71889,25.5444 C25.5149038,25.46568 25.2185464,25.42584 24.8266907,25.42584 L22.882567,25.42584 L22.882567,29.81712 L23.5428763,29.81712 L23.5428763,27.86712 L24.1355911,27.86712 C24.2852131,27.86712 24.3927388,27.87432 24.4591306,27.888 C24.5490962,27.91032 24.6366564,27.94896 24.7234948,28.00512 C24.8105739,28.06056 24.9087182,28.15872 25.0174467,28.29912 C25.1278591,28.43784 25.2680997,28.64016 25.4376873,28.90272 L26.0176529,29.81712 L26.7484433,29.81712 L25.9851787,28.62168 C25.8326701,28.3884 25.672945,28.19328 25.5026357,28.03824 C25.4230137,27.96552 25.3457973,27.88992 25.1988213,27.81264 C25.6190619,27.75408 25.8848694,27.62448 26.0864502,27.41112 C26.2892337,27.198 26.3890619,26.93592 26.3890619,26.62416" id="Fill-17"></path>
                    <path d="M17.7182509,28.006296 L16.4137491,28.006296 L17.0658797,26.178696 L17.7182509,28.006296 Z M15.1494192,29.817096 L15.7681134,29.817096 L16.2446426,28.481256 L17.8866357,28.481256 L18.3638866,29.817096 L18.9816186,29.817096 L17.4081821,25.408776 L16.7223746,25.408776 L15.1494192,29.817096 Z" id="Fill-19"></path>
                    <path d="M49.8598454,26.412792 C50.1104983,26.160312 50.4092612,26.035272 50.7570962,26.035272 C51.0022165,26.035272 51.2225601,26.100552 51.4190893,26.230632 C51.6158591,26.362152 51.7652405,26.545512 51.8669931,26.783112 C51.9687457,27.020712 52.0207045,27.298632 52.0207045,27.616632 C52.0207045,28.119912 51.9006701,28.508712 51.6625258,28.782312 C51.4234192,29.056872 51.1198454,29.193192 50.7498797,29.193192 C50.3871306,29.193192 50.0852405,29.057592 49.8439691,28.786152 C49.6043814,28.514952 49.483866,28.144632 49.483866,27.672792 C49.483866,27.085032 49.609433,26.663832 49.8598454,26.412792 M49.7318729,29.526312 C50.0306357,29.720472 50.3712543,29.817192 50.7522852,29.817192 C51.1032474,29.817192 51.4296735,29.729592 51.7342096,29.554392 C52.0373024,29.378232 52.2718385,29.120232 52.4370962,28.778712 C52.6030756,28.438872 52.6853436,28.051512 52.6853436,27.619512 C52.6853436,27.194472 52.6066838,26.811672 52.4500859,26.477112 C52.2918041,26.140872 52.0635223,25.878552 51.7640378,25.689912 C51.4652749,25.502952 51.1282646,25.408632 50.7554124,25.408632 C50.1845876,25.408632 49.7196048,25.608552 49.3587801,26.008152 C48.9981959,26.408472 48.8187457,26.962152 48.8187457,27.668952 C48.8187457,28.043112 48.8952405,28.398072 49.0501546,28.732392 C49.2045876,29.067912 49.4319072,29.333112 49.7318729,29.526312" id="Fill-21"></path>
                    <path d="M1.22439863,26.148168 C1.36415808,26.094888 1.52508591,26.068728 1.70766323,26.068728 C1.91357388,26.068728 2.0990378,26.103528 2.26309278,26.173128 C2.42738832,26.243448 2.54862543,26.334408 2.62704467,26.448168 C2.70065292,26.554968 2.74948454,26.688888 2.77281787,26.850888 L3.52477663,26.850888 C3.51756014,26.566008 3.43721649,26.310168 3.2861512,26.084568 C3.13292096,25.858488 2.92340206,25.690008 2.65639175,25.577448 C2.38986254,25.464168 2.05862543,25.408728 1.66292096,25.408728 C1.35189003,25.408728 1.07140893,25.464168 0.822680412,25.575528 C0.572749141,25.687368 0.381752577,25.843848 0.248728522,26.043528 C0.115945017,26.244648 0.0497938144,26.458008 0.0497938144,26.685288 C0.0497938144,26.913768 0.109931271,27.116088 0.230446735,27.291528 C0.695189003,27.918408 1.80749141,27.883368 2.34030928,28.085208 C2.49185567,28.141608 2.60010309,28.192968 2.6662543,28.276008 C2.7324055,28.359048 2.76536082,28.454808 2.76536082,28.566648 C2.76536082,28.676088 2.7304811,28.776408 2.66264605,28.869288 C2.5938488,28.961688 2.48993127,29.033448 2.35017182,29.087448 C2.20993127,29.140008 2.04876289,29.166168 1.86642612,29.166168 C1.66051546,29.166168 1.47553265,29.131608 1.31027491,29.061768 C1.14597938,28.992168 1.02474227,28.900488 0.946563574,28.787448 C0.872955326,28.680408 0.825085911,28.546488 0.801993127,28.384008 L0.0497938144,28.384008 C0.0565292096,28.668888 0.136872852,28.924728 0.288659794,29.150328 C0.440446735,29.376888 0.649965636,29.545608 0.918419244,29.657448 C1.1842268,29.771208 1.51522337,29.826648 1.91092784,29.826648 C2.22219931,29.826648 2.50268041,29.771208 2.75213058,29.660088 C3.00134021,29.547528 3.19185567,29.391768 3.32536082,29.191368 C3.45886598,28.990968 3.52477663,28.777608 3.52477663,28.549848 C3.52477663,28.321848 3.46487973,28.119528 3.34364261,27.943368 C2.96766323,27.391848 1.72594502,27.335928 1.23305842,27.149688 C1.08247423,27.094008 0.973986254,27.042168 0.908556701,26.959128 C0.841683849,26.875848 0.809209622,26.780088 0.809209622,26.668728 C0.809209622,26.559528 0.843608247,26.458728 0.912164948,26.365608 C0.9795189,26.273928 1.08415808,26.201448 1.22439863,26.148168" id="Fill-23"></path>
                </g>
            </g>
        </g>
    </g>
</svg>