<?xml version="1.0" encoding="UTF-8"?>
<svg width="38px" height="38px" viewBox="0 0 38 38" version="1.1" xmlns="http://www.w3.org/2000/svg" xmlns:xlink="http://www.w3.org/1999/xlink">
    <!-- Generator: Sketch 52.6 (67491) - http://www.bohemiancoding.com/sketch -->
    <title>低电量@2x</title>
    <desc>Created with Sketch.</desc>
    <defs>
        <linearGradient x1="50%" y1="0%" x2="50%" y2="100%" id="linearGradient-1">
            <stop stop-color="#FF304D" offset="0%"></stop>
            <stop stop-color="#FF72A0" offset="100%"></stop>
        </linearGradient>
        <linearGradient x1="50%" y1="0%" x2="50%" y2="100%" id="linearGradient-2">
            <stop stop-color="#FFF6F6" offset="0%"></stop>
            <stop stop-color="#FFE3EB" offset="100%"></stop>
        </linearGradient>
    </defs>
    <g id="Page-1" stroke="none" stroke-width="1" fill="none" fill-rule="evenodd">
        <g id="iPhone-8" transform="translate(-124.000000, -214.000000)">
            <g id="低电量" transform="translate(124.000000, 214.000000)">
                <circle id="椭圆形" fill="url(#linearGradient-1)" cx="19" cy="19" r="19"></circle>
                <g id="80%电量" transform="translate(7.000000, 7.000000)">
                    <rect id="矩形" fill="#000000" opacity="0" x="0" y="0" width="24" height="24"></rect>
                    <path d="M3.39140862,16.054547 L15.9440659,16.054547 L15.9440659,8.41963549 L3.39140862,8.41963549 L3.39140862,16.054547 Z M21.5243865,10.3284533 L21.5243865,8.41963549 C21.5243865,7.36984324 20.6654089,6.51093759 19.6156886,6.51093759 L3.39140864,6.51093759 C2.34161639,6.51093759 1.48271074,7.36984327 1.48271074,8.41963549 L1.48271072,16.054547 C1.48271072,17.1043393 2.34161639,17.9633648 3.39140862,17.9633648 L19.6156886,17.9633648 C20.6654089,17.9633648 21.5243865,17.1043632 21.5243865,16.054547 L21.5243865,14.1458491 C22.0492946,14.1458491 22.4787474,13.7164203 22.4787474,13.1914882 L22.4787474,11.2828143 C22.4787474,10.7579061 22.0492946,10.3284533 21.5243865,10.3284533 Z M20.5700495,11.2828143 L20.5700495,13.1914882 L20.5700495,16.054547 C20.5700495,16.5794311 20.1405967,17.008884 19.6156886,17.008884 L3.39140864,17.008884 C2.86650054,17.008884 2.4370477,16.5794311 2.4370477,16.054547 L2.43704768,8.41963549 C2.43704768,7.89472739 2.86650052,7.46527455 3.39140862,7.46527455 L19.6156886,7.46527455 C20.1405967,7.46527455 20.5700495,7.89472739 20.5700495,8.41963549 L20.5700495,11.2828143 Z" id="形状" fill="url(#linearGradient-2)" fill-rule="nonzero"></path>
                </g>
            </g>
        </g>
    </g>
</svg>