<?xml version="1.0" encoding="UTF-8"?>
<svg width="24px" height="24px" viewBox="0 0 24 24" version="1.1" xmlns="http://www.w3.org/2000/svg" xmlns:xlink="http://www.w3.org/1999/xlink">
    <!-- Generator: Sketch 52.6 (67491) - http://www.bohemiancoding.com/sketch -->
    <title>指纹管理@2x</title>
    <desc>Created with Sketch.</desc>
    <g id="Page-1" stroke="none" stroke-width="1" fill="none" fill-rule="evenodd">
        <g id="所有图标" transform="translate(-162.000000, -479.000000)" fill="#1895FC" fill-rule="nonzero">
            <g id="2" transform="translate(162.000000, 479.000000)">
                <path d="M9.02706394,4.51407799 C10.1084668,4.05270324 11.2559096,3.81787178 12.4391239,3.81787178 C15.8731972,3.81787178 19.0045878,5.85399868 20.4189417,9.00350297 C20.5702831,9.33779247 20.9004824,9.53947125 21.2444401,9.53947125 C21.3710165,9.53947125 21.4948413,9.51184402 21.6159144,9.45935228 C22.0726901,9.25214805 22.2735614,8.71341705 22.0699385,8.25480502 C20.3666601,4.45606081 16.5831259,2 12.4391239,2 C11.0110117,2 9.62417444,2.28456048 8.31713532,2.83986781 C7.85760789,3.03602115 7.64297831,3.5692267 7.83834626,4.03336418 C8.03371421,4.49750165 8.5675365,4.71299405 9.02706394,4.51407799 Z M23,12.5121613 L23,12.3436352 C23,12.304957 22.9972483,12.2635162 22.991745,12.2248381 C22.98349,12.0424983 22.975235,11.8601586 22.9587251,11.6805816 C22.9146985,11.1805288 22.4771844,10.8103239 21.9791337,10.8517647 C21.481083,10.8959683 21.1123604,11.3352412 21.1536353,11.8352941 C21.1701452,12.0507865 21.1839035,12.2662789 21.1866552,12.484534 C21.1591386,15.2942234 20.3226336,18.0072174 18.7651933,20.3334303 C18.4845238,20.7506015 18.5973419,21.314197 19.0128428,21.5959947 C19.1669358,21.6982155 19.3457938,21.7507072 19.5163968,21.7507072 C19.8080729,21.7507072 20.0942457,21.6098083 20.270352,21.3501124 C21.9873886,18.7835426 22.9257051,15.797039 22.9944967,12.7055519 C22.9972483,12.6723992 23,12.6420093 23,12.6060939 L23,12.5121613 Z M6.93855301,12.3684997 C6.98808292,10.3544746 8.06948581,8.48411104 9.7617575,7.49229346 C10.1937683,7.23812293 10.3396064,6.68005288 10.0864535,6.24906808 C9.8333007,5.81532056 9.27746512,5.66889623 8.84820595,5.92306675 C7.7640514,6.55849306 6.84774819,7.47571712 6.19560446,8.5752809 C5.56547403,9.63892928 5.20225474,10.849002 5.1334632,12.0922274 C5.11144991,12.1723463 5.10044327,12.2579907 5.10044327,12.3436352 C5.10044327,14.1394052 4.33272977,15.8550562 2.98716739,17.054078 C2.61294146,17.3883675 2.57992152,17.9630139 2.91287254,18.3387442 C3.09173052,18.540423 3.33938004,18.6454065 3.58978122,18.6454065 C3.8044108,18.6454065 4.01904038,18.5680502 4.19239504,18.4161005 C5.86265345,16.92423 6.84499653,14.8052214 6.90828474,12.5729412 C6.92479471,12.5093985 6.93855301,12.4403305 6.93855301,12.3684997 Z M18.1433178,16.8662128 C17.6837904,16.6700595 17.1499681,16.8827892 16.9546001,17.3441639 C16.3189664,18.8415598 15.4109181,20.1870059 14.2607237,21.3473496 C13.9057594,21.7037409 13.9085111,22.2783873 14.2634754,22.6347786 C14.4395817,22.8115929 14.6707213,22.9 14.9018608,22.9 C15.135752,22.9 15.3668916,22.8115929 15.5429979,22.6320159 C16.858292,21.3086715 17.890165,19.7698348 18.6193552,18.0597092 C18.8147232,17.5983344 18.6028452,17.0651289 18.1433178,16.8662128 Z M17.5517106,15.6036484 C17.4251342,16.0898876 17.711307,16.5871778 18.1955994,16.7170258 C18.2753976,16.7363648 18.3496924,16.7474157 18.4267389,16.7474157 C18.8257298,16.7474157 19.1944524,16.4794316 19.3017672,16.0705486 C19.5934433,14.9599339 19.7530397,13.8106411 19.7778046,12.6558229 C19.7860596,12.6116193 19.7888113,12.5674157 19.7888113,12.5204494 C19.7888113,8.34321216 16.500576,4.94230007 12.4583856,4.94230007 C11.9575832,4.94230007 11.553089,5.34842036 11.553089,5.85123596 C11.553089,6.35405155 11.9575832,6.76017184 12.4583856,6.76017184 C15.4301798,6.76017184 17.8598967,9.2217581 17.9727148,12.2911434 C17.9727148,12.3077198 17.9699632,12.3242961 17.9699632,12.3436352 C17.9699632,13.4487244 17.8296284,14.5455254 17.5517106,15.6036484 Z M16.5501059,12.9320952 C16.5886292,12.8298744 16.6106425,12.7193655 16.6106425,12.6060939 C16.6106425,10.2771183 14.7587744,8.38741573 12.4803989,8.38741573 C11.3934927,8.38741573 10.3643713,8.81563781 9.58840284,9.59472571 C8.93901078,10.2439656 8.52626158,11.0755453 8.39418184,11.9789557 C8.34465194,12.0922274 8.31713532,12.2165499 8.31713532,12.3463979 C8.31713532,13.4045208 8.11076073,14.4322538 7.70901818,15.3992069 C7.51365022,15.8633443 7.73378313,16.3965499 8.19331056,16.5899405 C8.30888034,16.6396695 8.42720177,16.6617713 8.54552321,16.6617713 C8.90048752,16.6617713 9.2361902,16.4518044 9.37927658,16.1037013 C9.81954239,15.0511038 10.0671919,13.9404891 10.1222251,12.7994845 C10.1469901,12.7193655 10.1635001,12.6337211 10.1635001,12.5453139 C10.19652,11.2551223 11.2338963,10.2080502 12.4831505,10.2080502 C13.6278416,10.2080502 14.5771648,11.0700198 14.7670294,12.1972108 C14.7587744,12.2469399 14.7560228,12.2966689 14.7560228,12.3463979 C14.7560228,15.766649 13.2178441,18.9520687 10.537726,21.0848909 C10.1442384,21.3970787 10.0809502,21.9689623 10.3891363,22.361269 C10.5679943,22.5878123 10.8349054,22.7066094 11.0990649,22.7066094 C11.2944328,22.7066094 11.4953041,22.6430668 11.6604038,22.510456 C13.1545559,21.3224851 14.3900518,19.7891738 15.2320602,18.081811 C16.0300419,16.4628553 16.4730594,14.7306279 16.5501059,12.9320952 Z M13.3471722,12.3436352 C13.3471722,11.8408196 12.942678,11.4346993 12.4418756,11.4346993 C11.9410733,11.4346993 11.536579,11.8408196 11.536579,12.3436352 C11.536579,15.4268341 10.034172,18.3387442 7.51640189,20.1289888 C7.10915601,20.4190747 7.01284787,20.9881956 7.29902064,21.3970787 C7.47512697,21.6457237 7.75579642,21.7810972 8.03921753,21.7810972 C8.22082718,21.7810972 8.40243682,21.7258427 8.56203318,21.6125711 C10.009407,20.5848381 11.2091313,19.2117647 12.0373814,17.642538 C12.8931481,16.0208196 13.3471722,14.1891342 13.3471722,12.3436352 Z M8.33364529,17.9851157 C8.62256973,17.5762327 8.52901324,17.0098744 8.12176737,16.7170258 C7.7145215,16.4269399 7.15043093,16.5208724 6.85875484,16.9297555 C6.35795248,17.6342498 5.74983533,18.2503371 5.05366503,18.7559154 C4.64917081,19.0515268 4.56111765,19.617885 4.85279375,20.026768 C5.02890007,20.2698876 5.30681786,20.4024983 5.58748732,20.4024983 C5.77184862,20.4024983 5.95896159,20.3444812 6.11855795,20.2312095 C6.97432461,19.6040714 7.72002482,18.849848 8.33364529,17.9851157 Z M3.69434435,12.2800925 C3.76313588,10.4014408 4.4152796,8.63053536 5.57923233,7.15247852 C5.89017006,6.75740912 5.82413019,6.18828817 5.43064262,5.87610046 C5.03715506,5.56391276 4.47031283,5.63021811 4.1593751,6.02528751 C2.72575957,7.83763384 1.93603278,10.0201851 1.87824789,12.335347 C1.87824789,12.3712624 1.87824789,12.4071778 1.88099955,12.4403305 C1.86448958,13.3050628 1.61133674,14.1476933 1.14355432,14.8742895 C0.873891516,15.2969861 0.994964613,15.8578189 1.41596879,16.1313285 C1.56731016,16.2307865 1.73791316,16.2777528 1.9057645,16.2777528 C2.20294392,16.2777528 2.49462002,16.1285658 2.67072634,15.8605816 C3.33938004,14.8135096 3.69709601,13.5979114 3.69709601,12.3491606 C3.69709601,12.3242961 3.69709601,12.3021943 3.69434435,12.2800925 Z" id="形状"></path>
            </g>
        </g>
    </g>
</svg>