<svg height="38" viewBox="0 0 38 38" width="38" xmlns="http://www.w3.org/2000/svg" xmlns:xlink="http://www.w3.org/1999/xlink"><linearGradient id="a" x1="50%" x2="50%" y1="0%" y2="100%"><stop offset="0" stop-color="#fb9e03"/><stop offset="1" stop-color="#ffcf37"/></linearGradient><linearGradient id="b" x1="50%" x2="50%" y1="0%" y2="100%"><stop offset="0" stop-color="#ffedcb"/><stop offset="1" stop-color="#fff"/></linearGradient><g fill="none" fill-rule="evenodd" transform=""><circle cx="19" cy="19" fill="url(#a)" r="19"/><path d="m10 10h19v19h-19z" fill="#000" opacity="0"/><g transform="translate(9 9)"><path d="m0 0h20v20h-20z" fill="#000" opacity="0"/><path d="m5.04361328 1.69251953c.35533203 0 .65574219.12359375.90351563.37021485.24662109.2471875.37021484.54845703.37021484.90378906v2.16666015c0 .3550586-.12359375.65632813-.37021484.90351563-.24777344.2471875-.54816407.37078125-.90351563.37078125h-2.16722656c-.35476563 0-.65574219-.12359375-.90292969-.37078125s-.37078125-.54845703-.37078125-.90351563v-2.16664062c0-.35533203.12359375-.65660156.37078125-.90378906.2471875-.2466211.54816406-.37021485.90292969-.37021485h2.16722656zm6.00787112 0c.3547461 0 .6560351.12359375.9029101.37021485.2475.2471875.3707813.54845703.3707813.90378906v2.16666015c0 .3550586-.1233008.65632813-.3707813.90351563-.2468945.2471875-.548164.37078125-.9029101.37078125h-2.20556643c-.35447266 0-.65574219-.12359375-.90292969-.37078125s-.37078125-.54845703-.37078125-.90351563v-2.16664062c0-.35533203.12359375-.65660156.37078125-.90378906.2471875-.2466211.54845703-.37021485.90292969-.37021485h2.20556643zm5.9311914 0c.355332 0 .656582.12359375.9035156.37021485.2471875.2471875.3707813.54845703.3707813.90378906v2.16666015c0 .3550586-.1235938.65632813-.3707813.90351563-.2469336.2471875-.5481641.37078125-.9035156.37078125h-2.2050195c-.3547657 0-.6557422-.12359375-.9029297-.37078125s-.3707813-.54845703-.3707813-.90351563v-2.16664062c0-.35533203.1235938-.65660156.3707813-.90378906.2471875-.2466211.548164-.37021485.9029297-.37021485h2.2050195zm-11.93906252 5.96982422c.35533203 0 .65574219.12359375.90351563.37021484.24662109.2471875.37021484.54816407.37021484.90292969v2.16779292c0 .3544727-.12359375.6557422-.37021484.9029297-.24777344.2471875-.54816407.3707813-.90351563.3707813h-2.16722656c-.35476563 0-.65574219-.1235938-.90292969-.3707813s-.37078125-.548457-.37078125-.9029297v-2.16779292c0-.35476562.12359375-.65574219.37078125-.90292969.2471875-.24662109.54816406-.37021484.90292969-.37021484zm6.00787112 0c.3547461 0 .6560351.12359375.9029101.37021484.2475.2471875.3707813.54816407.3707813.90292969v2.16779292c0 .3544727-.1233008.6557422-.3707813.9029297-.2468945.2471875-.548164.3707813-.9029101.3707813h-2.20556643c-.35447266 0-.65574219-.1235938-.90292969-.3707813s-.37078125-.548457-.37078125-.9029297v-2.16779292c0-.35476562.12359375-.65574219.37078125-.90292969.2471875-.24662109.54845703-.37021484.90292969-.37021484zm5.9311914 0c.355332 0 .656582.12359375.9035156.37021484.2471875.2471875.3707813.54816407.3707813.90292969v2.16779292c0 .3544727-.1235938.6557422-.3707813.9029297-.2469336.2471875-.5481641.3707813-.9035156.3707813h-2.2050195c-.3547657 0-.6557422-.1235938-.9029297-.3707813s-.3707813-.548457-.3707813-.9029297v-2.16779292c0-.35476562.1235938-.65574219.3707813-.90292969.2471875-.24662109.548164-.37021484.9029297-.37021484zm-11.93906252 5.96951175c.35533203 0 .65574219.1235937.90351563.3705078.24662109.2474805.37021484.5478906.37021484.9032226v2.1672266c0 .3544727-.12359375.6557422-.37021484.9029297-.24777344.2471875-.54816407.3707812-.90351563.3707812h-2.16722656c-.35476563 0-.65574219-.1235937-.90292969-.3707812s-.37078125-.548457-.37078125-.9029297v-2.1672266c0-.355332.12359375-.6557421.37078125-.9032226.2471875-.2469141.54816406-.3705078.90292969-.3705078zm6.00787112 0c.3547461 0 .6560351.1235937.9029101.3705078.2475.2474805.3707813.5478906.3707813.9032226v2.1672266c0 .3544727-.1233008.6557422-.3707813.9029297-.2468945.2471875-.548164.3707812-.9029101.3707812h-2.20556643c-.35447266 0-.65574219-.1235937-.90292969-.3707812s-.37078125-.548457-.37078125-.9029297v-2.1672266c0-.355332.12359375-.6557421.37078125-.9032226.2471875-.2469141.54845703-.3705078.90292969-.3705078zm5.9311914 0c.355332 0 .656582.1235937.9035156.3705078.2471875.2474805.3707813.5478906.3707813.9032226v2.1672266c0 .3544727-.1235938.6557422-.3707813.9029297-.2469336.2471875-.5481641.3707812-.9035156.3707812h-2.2050195c-.3547657 0-.6557422-.1235937-.9029297-.3707812s-.3707813-.548457-.3707813-.9029297v-2.1672266c0-.355332.1235938-.6557421.3707813-.9032226.2471875-.2469141.548164-.3705078.9029297-.3705078z" fill="url(#b)" fill-rule="nonzero"/></g></g></svg>