<?xml version="1.0" encoding="UTF-8"?>
<svg width="24px" height="24px" viewBox="0 0 24 24" version="1.1" xmlns="http://www.w3.org/2000/svg" xmlns:xlink="http://www.w3.org/1999/xlink">
    <!-- Generator: Sketch 52.6 (67491) - http://www.bohemiancoding.com/sketch -->
    <title>安全设置@2x</title>
    <desc>Created with Sketch.</desc>
    <g id="Page-1" stroke="none" stroke-width="1" fill="none" fill-rule="evenodd">
        <g id="所有图标" transform="translate(-162.000000, -551.000000)" fill="#FFB02B" fill-rule="nonzero">
            <g id="5" transform="translate(162.000000, 551.000000)">
                <path d="M20.145,2.62 C17.535,1.58500001 15.06,1 12,1 C8.94,1 6.465,1.58500001 3.85500001,2.62 C3.36000001,2.80000001 3,3.295 3,3.88000001 L3,12.34 C3,16.795 9.3,20.53 11.415,21.565 C11.595,21.655 11.82,21.7 12,21.7 C12.18,21.7 12.405,21.655 12.585,21.565 C14.7,20.53 21,16.795 21,12.34 L21,3.88000001 C21,3.29500002 20.64,2.80000001 20.145,2.62 Z M12.45,9.90999999 L12.45,13.6 C12.45,13.87 12.27,14.05 12,14.05 C11.73,14.05 11.55,13.87 11.55,13.6 L11.55,10 L11.55,9.90999999 C11.01,9.73 10.65,9.23499999 10.65,8.65 C10.65,7.88499999 11.235,7.3 12,7.3 C12.765,7.3 13.35,7.88499999 13.35,8.65 C13.35,9.23499999 12.945,9.73 12.45,9.90999999 Z" id="形状"></path>
            </g>
        </g>
    </g>
</svg>