<?xml version="1.0" encoding="UTF-8"?>
<svg width="24px" height="24px" viewBox="0 0 24 24" version="1.1" xmlns="http://www.w3.org/2000/svg" xmlns:xlink="http://www.w3.org/1999/xlink">
    <!-- Generator: Sketch 52.6 (67491) - http://www.bohemiancoding.com/sketch -->
    <title>在线客服@2x</title>
    <desc>Created with Sketch.</desc>
    <g id="Page-1" stroke="none" stroke-width="1" fill="none" fill-rule="evenodd">
        <g id="所有图标" transform="translate(-275.000000, -551.000000)">
            <g id="分组-2" transform="translate(275.000000, 551.000000)"></g>
            <g id="6" transform="translate(275.000000, 551.000000)" fill="#727BFC" fill-rule="nonzero">
                <path d="M12.3438576,21.256524 L8.58996,14.9420616 C8.58996,14.9420616 4.52570161,16.5188736 3.1156872,17.4677184 C1.7055288,18.4165632 1,22 1,22 L23,22 C23,22 23.231267,18.584328 21.572243,17.4677184 C20.1619646,16.5188736 16.0976342,14.9420616 16.0976342,14.9420616 L12.3438576,21.256524 Z M12.3438576,16.2049728 L11.0924544,17.467692 L11.718216,18.7306272 L9.84121922,21.2564976 L14.8463989,21.2564976 L12.9694741,18.7306272 L13.5950437,17.467692 L12.3438576,16.2049728 Z M12.4781232,1.7276928 C17.988876,1.7276928 17.9984952,5.94485041 17.9984952,8.31607441 C17.9984952,10.6873224 15.7904376,15.0933504 12.4781232,15.098484 C9.1659528,15.1038792 6.9577272,10.6873224 6.9577272,8.31607439 C6.9577272,5.94485039 6.96744239,1.7276928 12.4781232,1.7276928 Z" id="形状"></path>
            </g>
        </g>
    </g>
</svg>